# xmcd
# 
# Track frame offsets:
#     150
#     17773
#     32390
#     48980
#     64608
#     82353
#     95478
#     114798
#     132830
#     157873
#     171025
#     180405
# 
# Disc length: 2858
# 
# Revision: 22
# Processed by: cddbd v1.5.2PL0 Copyright (c) Steve Scherf et al.
# Submitted via: BonkEnc v1.0.8
# 
DISCID=880b280c,8b0b280c,8f0b2a0c,900b290c,950b2a0c
DTITLE=Beck - Mellow Gold
DYEAR=1994
DGENRE=Rock
TTITLE0=Loser
TTITLE1=Pay No Mind (Snoozer)
TTITLE2=F___in With My Head (Mountain Dew Rock)
TTITLE3=Whiskeyclone, Hotel City 1997
TTITLE4=Soul Suckin Jerk
TTITLE5=Truckdrivin Neighbors Downstairs (Yellow Sweat)
TTITLE6=Sweet Sunshine
TTITLE7=Beercan
TTITLE8=Steal My Body Home
TTITLE9=Nightmare Hippy Girl
TTITLE10=Mutherf__er
TTITLE11=Blackhole
EXTD=
EXTT0=
EXTT1=
EXTT2=
EXTT3=
EXTT4=
EXTT5=
EXTT6=
EXTT7=
EXTT8=
EXTT9=
EXTT10=
EXTT11=
PLAYORDER=
